<svg aria-hidden="true" style="position: absolute; width: 0; height: 0; overflow: hidden;" version="1.1" xmlns="http://www.w3.org/2000/svg" >
<defs>
<symbol id="icon-face" viewBox="0 0 31 32">
<path fill="#fff" style="fill: var(--color1, #fff)" d="M15.36 0.531c-8.483 0-15.36 6.877-15.36 15.36s6.877 15.36 15.36 15.36c8.483 0 15.36-6.877 15.36-15.36s-6.877-15.36-15.36-15.36zM18.998 11.145h-2.309c-0.274 0-0.578 0.36-0.578 0.838v1.667h2.888l-0.437 2.378h-2.451v7.138h-2.725v-7.138h-2.472v-2.378h2.472v-1.398c0-2.006 1.392-3.637 3.302-3.637h2.309v2.53z"></path>
</symbol>
<symbol id="icon-inst" viewBox="0 0 31 32">
<path fill="#fff" style="fill: var(--color1, #fff)" d="M20.343 15.891c0 1.273-0.506 2.494-1.406 3.394s-2.121 1.406-3.394 1.406c-1.273 0-2.494-0.506-3.394-1.406s-1.406-2.121-1.406-3.394c0-0.274 0.029-0.541 0.078-0.8h-1.678v6.395c0 0.445 0.36 0.805 0.805 0.805h11.192c0.213-0 0.417-0.085 0.568-0.236s0.235-0.355 0.235-0.569v-6.395h-1.678c0.050 0.259 0.078 0.526 0.078 0.8zM15.543 19.091c0.42-0 0.836-0.083 1.225-0.244s0.741-0.397 1.038-0.694c0.297-0.297 0.533-0.65 0.694-1.039s0.243-0.805 0.243-1.225c-0-0.42-0.083-0.836-0.244-1.225s-0.397-0.741-0.694-1.038c-0.297-0.297-0.65-0.533-1.039-0.694s-0.805-0.243-1.225-0.243c-0.849 0-1.663 0.338-2.263 0.938s-0.937 1.415-0.937 2.264 0.338 1.663 0.938 2.263c0.6 0.6 1.415 0.937 2.264 0.937zM19.383 12.531h1.918c0.127 0 0.25-0.051 0.34-0.141s0.141-0.212 0.142-0.339v-1.918c0-0.128-0.051-0.25-0.141-0.341s-0.213-0.141-0.341-0.141h-1.918c-0.128 0-0.25 0.051-0.341 0.141s-0.141 0.213-0.141 0.341v1.918c0.002 0.264 0.218 0.48 0.482 0.48zM15.543 0.531c-4.074 0-7.981 1.618-10.861 4.499s-4.499 6.787-4.499 10.861c0 4.074 1.618 7.981 4.499 10.861s6.787 4.499 10.861 4.499c2.017 0 4.014-0.397 5.878-1.169s3.557-1.903 4.983-3.33c1.426-1.426 2.558-3.12 3.33-4.983s1.169-3.861 1.169-5.878-0.397-4.014-1.169-5.878c-0.772-1.864-1.903-3.557-3.33-4.983s-3.12-2.558-4.983-3.33c-1.863-0.772-3.861-1.169-5.878-1.169zM23.543 22.113c0 0.978-0.8 1.778-1.778 1.778h-12.445c-0.978 0-1.778-0.8-1.778-1.778v-12.445c0-0.978 0.8-1.778 1.778-1.778h12.445c0.978 0 1.778 0.8 1.778 1.778v12.445z"></path>
</symbol>
<symbol id="icon-twit" viewBox="0 0 32 32">
<path fill="#fff" style="fill: var(--color1, #fff)" d="M15.909 0.531c-8.483 0-15.36 6.877-15.36 15.36s6.877 15.36 15.36 15.36c8.483 0 15.36-6.877 15.36-15.36s-6.877-15.36-15.36-15.36zM22.157 13.113c0.006 0.131 0.008 0.262 0.008 0.39 0 4-3.042 8.61-8.606 8.61-1.644 0.003-3.254-0.47-4.637-1.36 0.235 0.029 0.477 0.040 0.722 0.040 1.418 0 2.722-0.482 3.757-1.294-0.631-0.012-1.242-0.221-1.749-0.598s-0.883-0.901-1.077-1.502c0.453 0.086 0.92 0.068 1.365-0.053-0.685-0.139-1.3-0.51-1.743-1.050s-0.684-1.218-0.684-1.916v-0.037c0.408 0.226 0.875 0.363 1.371 0.379-0.642-0.427-1.096-1.084-1.27-1.835s-0.054-1.541 0.334-2.207c0.76 0.934 1.708 1.699 2.782 2.244s2.251 0.858 3.453 0.919c-0.153-0.649-0.087-1.331 0.187-1.938s0.742-1.108 1.33-1.423c0.588-0.315 1.263-0.426 1.921-0.318s1.262 0.432 1.717 0.919c0.677-0.134 1.326-0.382 1.92-0.734-0.226 0.701-0.698 1.296-1.33 1.675 0.6-0.072 1.185-0.233 1.738-0.478-0.406 0.608-0.917 1.138-1.509 1.566z"></path>
</symbol>
</defs>
</svg>
